# xmcd
#
# Track frame offsets:
#	150
#	14849
#	25890
#	42608
#	54583
#	70592
#	89666
#	114218
#	129853
#	146901
#	152821
#	165987
#	180246
#	190049
#	209062
#	220462
#
# Disc length: 3040 seconds
#
# Revision: 0
# Processed by: cddbd v1.5.2PL0 Copyright (c) Steve Scherf et al.
# Submitted via: EasyCDDAExtractor 11.1.0.1
#
DISCID=e60bde10
DTITLE=Pat and Butch - Winter Mission
DYEAR=1999
DGENRE=Country
TTITLE0=Rolling Thunder
TTITLE1=Southern Queen
TTITLE2=String of love
TTITLE3=Irish Girl
TTITLE4=Angels Tonight
TTITLE5=Swamp Devils
TTITLE6=Rollin' On
TTITLE7=Paradise
TTITLE8=Trouble
TTITLE9=Ned Kelly Blues
TTITLE10=The Newspaper Blues
TTITLE11=Faces
TTITLE12=Boat Builder
TTITLE13=Feel the Thunder
TTITLE14=Winter Mission
TTITLE15=Epilogue
EXTD=
EXTT0=
EXTT1=
EXTT2=
EXTT3=
EXTT4=
EXTT5=
EXTT6=
EXTT7=
EXTT8=
EXTT9=
EXTT10=
EXTT11=
EXTT12=
EXTT13=
EXTT14=
EXTT15=
PLAYORDER=
